<?xml version="1.0" standalone="no"?>
<!DOCTYPE svg PUBLIC "-//W3C//DTD SVG 20010904//EN"
 "http://www.w3.org/TR/2001/REC-SVG-20010904/DTD/svg10.dtd">
<svg version="1.0" xmlns="http://www.w3.org/2000/svg"
 width="2436.000000pt" height="2436.000000pt" viewBox="0 0 2436.000000 2436.000000"
 preserveAspectRatio="xMidYMid meet">
<metadata>
Created by potrace 1.11, written by Peter Selinger 2001-2013
</metadata>
<g transform="translate(0.000000,2436.000000) scale(0.100000,-0.100000)"
fill="#000000" stroke="none">
<path d="M11459 15813 c0 -16 -1 -264 -2 -552 l-2 -525 -68 -17 c-178 -45
-365 -135 -512 -248 -282 -216 -478 -562 -540 -954 -14 -87 -17 -129 -20 -257
-1 -80 1 -174 6 -210 5 -36 11 -81 13 -100 13 -95 53 -247 77 -291 7 -13 12
-26 12 -29 -1 -10 31 -85 60 -140 136 -257 367 -478 627 -598 99 -45 211 -85
291 -101 l56 -12 1 -407 c0 -224 1 -416 1 -428 1 -21 3 -21 293 -20 l292 1 -1
423 c0 232 3 422 6 423 3 0 13 2 21 4 8 1 29 5 45 8 154 25 372 118 530 226
72 49 234 201 293 274 55 68 202 324 202 352 0 4 6 21 14 38 38 83 83 286 93
422 21 258 -2 488 -67 702 -36 118 -119 301 -156 344 -8 8 -14 19 -14 23 0 14
-86 123 -157 196 -196 206 -452 334 -789 396 -21 4 -21 4 -22 531 0 291 -1
534 -1 541 -1 9 -66 12 -291 12 l-290 0 -1 -27z m693 -1963 c77 -98 134 -246
157 -410 10 -70 7 -355 -4 -405 -3 -16 -11 -50 -16 -75 -26 -115 -96 -247
-172 -322 -81 -80 -74 -141 -74 627 l0 684 36 -26 c20 -14 53 -47 73 -73z
m-695 -595 c0 -338 -4 -615 -8 -615 -15 0 -100 129 -125 190 -24 59 -45 135
-60 210 -3 19 -8 103 -9 185 -7 289 36 451 164 622 13 18 27 30 31 28 4 -3 7
-281 7 -620z"/>
<path d="M2578 14713 c-3 -5 -4 -660 -4 -1458 l1 -1450 770 0 c424 0 795 3
825 7 294 36 513 129 673 286 151 148 229 349 229 590 -1 175 -67 323 -206
457 -105 101 -240 170 -408 209 l-98 22 78 23 c248 72 434 225 509 418 22 58
26 84 27 183 1 131 -5 174 -34 252 -48 129 -145 236 -280 310 -127 70 -342
128 -545 146 -121 12 -1532 16 -1537 5z m1216 -600 c163 -33 244 -114 247
-246 2 -54 -14 -118 -35 -145 -40 -51 -94 -94 -144 -113 -49 -19 -82 -23 -229
-27 -163 -4 -173 -3 -174 14 -1 21 -1 489 0 517 1 17 12 18 134 16 72 -1 163
-9 201 -16z m113 -1137 c146 -39 225 -137 225 -280 1 -84 -23 -144 -80 -201
-82 -82 -165 -103 -412 -105 -167 -1 -180 1 -181 17 -1 26 -1 534 0 561 l1 23
200 -1 c125 -1 217 -6 247 -14z"/>
<path d="M6330 14717 c0 -2 11 -25 24 -53 27 -56 92 -194 143 -304 20 -41 48
-102 63 -135 16 -33 56 -118 89 -189 34 -70 61 -130 61 -131 0 -1 28 -61 61
-131 34 -71 74 -156 89 -189 15 -33 57 -122 94 -198 36 -76 66 -140 66 -141 0
-2 30 -66 66 -142 37 -77 84 -177 105 -223 l39 -84 0 -498 0 -499 440 0 440 0
0 505 0 505 111 227 c61 126 146 300 189 388 43 88 133 273 200 410 67 138
160 327 205 420 45 94 114 235 154 315 l71 145 -462 3 c-254 1 -465 -1 -469
-5 -5 -6 -66 -181 -74 -213 -1 -3 -4 -12 -8 -20 -38 -100 -253 -764 -260 -805
-3 -17 -8 -46 -11 -65 -13 -66 -14 -75 -15 -94 -2 -36 -11 -9 -32 93 -18 90
-75 266 -261 801 -27 80 -62 181 -77 225 l-28 80 -506 3 c-279 1 -507 1 -507
-1z"/>
<path d="M14827 14713 c-2 -5 -3 -660 -3 -1458 l1 -1450 409 0 410 0 -1 725
c0 399 -3 784 -7 855 l-6 130 44 -70 c67 -107 142 -212 499 -700 182 -247 411
-561 511 -697 l181 -248 388 0 387 0 0 1460 0 1460 -409 0 -409 0 2 -792 c1
-436 5 -799 9 -805 5 -7 4 -13 -2 -13 -5 0 -12 9 -16 20 -11 34 -176 263 -805
1115 -52 72 -120 164 -150 205 -30 41 -60 82 -67 90 -7 8 -39 52 -73 98 l-61
82 -414 0 c-227 0 -416 -3 -418 -7z"/>
<path d="M19365 13263 l0 -1458 710 0 c391 0 737 3 770 8 355 44 661 188 878
412 95 98 175 212 238 340 52 107 111 276 124 360 3 16 10 55 16 85 14 69 20
432 9 525 -13 110 -22 169 -26 176 -2 3 -6 20 -9 37 -22 128 -123 357 -207
468 -188 251 -489 416 -863 473 -38 6 -86 14 -105 17 -19 4 -373 9 -785 11
l-750 4 0 -1458z m1310 743 c194 -52 362 -192 436 -363 104 -238 98 -542 -16
-778 -69 -142 -164 -242 -289 -304 -106 -52 -164 -63 -368 -68 l-188 -5 0 81
c0 44 -1 385 -1 756 0 371 1 682 1 691 0 15 19 16 183 11 122 -3 202 -10 242
-21z"/>
<path d="M143 9815 l0 -585 328 0 c212 0 329 4 330 10 0 6 1 43 2 83 l0 72
-231 3 -232 2 0 165 0 165 203 0 202 0 -1 63 c-1 34 -2 72 -3 85 l-1 22 -200
0 -200 0 0 165 0 165 218 0 218 0 -1 83 0 82 -316 3 -316 2 0 -585z"/>
<path d="M1923 9815 l0 -585 94 0 93 0 1 43 c0 23 1 231 1 462 0 231 4 411 8
399 9 -24 44 -78 185 -294 127 -194 159 -242 165 -255 3 -5 56 -88 119 -182
l113 -173 108 0 107 0 -1 583 -1 582 -92 3 c-91 3 -93 2 -94 -20 0 -13 -1
-216 -1 -451 l0 -428 -32 53 c-35 57 -101 160 -286 448 -66 102 -150 233 -187
292 l-68 108 -116 0 -116 0 0 -585z"/>
<path d="M3999 10393 c-1 -10 -1 -145 0 -155 1 -5 75 -8 166 -8 l165 0 0 -32
c1 -18 1 -243 1 -500 l1 -468 99 0 99 0 0 500 0 500 168 0 167 0 0 85 0 85
-432 0 c-238 0 -433 -3 -434 -7z"/>
<path d="M5957 10393 c-3 -5 -5 -268 -5 -585 l1 -578 328 0 328 0 3 28 c2 15
1 53 0 85 l-4 57 -229 0 -229 0 0 165 0 165 200 0 c126 0 200 4 201 10 1 6 1
19 1 30 0 11 0 45 -1 75 l-1 55 -200 0 -200 0 0 165 0 165 218 0 217 0 0 83 0
82 -312 3 c-171 1 -314 -1 -316 -5z"/>
<path d="M7737 10393 c-3 -5 -6 -269 -6 -586 l0 -577 99 0 100 0 0 235 0 235
58 0 c66 0 127 -25 166 -66 22 -25 156 -229 156 -239 0 -2 22 -39 49 -82 l48
-78 117 -3 116 -3 -47 73 c-25 40 -78 123 -116 183 -88 141 -139 204 -200 252
l-27 21 62 30 c73 34 127 85 160 151 19 39 23 62 23 146 0 91 -2 104 -27 147
-36 61 -98 112 -167 140 -52 21 -76 23 -307 26 -141 2 -254 0 -257 -5z m438
-166 c81 -27 119 -81 118 -170 -2 -79 -36 -137 -101 -169 -41 -21 -66 -25
-155 -27 l-107 -2 0 191 0 191 108 -2 c59 -1 121 -7 137 -12z"/>
<path d="M9569 10393 c-1 -14 -1 -138 0 -150 1 -10 41 -13 166 -13 125 0 165
-3 166 -12 0 -7 1 -232 1 -500 l1 -488 98 0 99 0 0 500 0 500 168 0 168 0 -1
83 0 82 -433 3 c-237 1 -432 -1 -433 -5z"/>
<path d="M11821 10378 c-4 -13 -31 -84 -59 -158 -28 -74 -78 -209 -111 -300
-34 -91 -65 -174 -70 -185 -6 -11 -39 -99 -74 -195 -36 -96 -77 -205 -91 -242
l-25 -68 109 0 108 0 49 148 50 147 229 3 230 2 24 -72 c12 -40 26 -77 29 -83
3 -5 15 -39 27 -75 l21 -65 111 -3 111 -3 -29 73 c-15 40 -83 222 -150 403
-67 182 -151 407 -186 501 -35 94 -64 176 -64 183 0 7 -36 11 -115 11 -111 0
-116 -1 -124 -22z m122 -188 c5 -24 119 -362 137 -405 9 -21 30 -86 30 -91 0
-2 -79 -4 -175 -4 -96 0 -175 2 -175 4 0 3 5 17 11 33 32 81 159 464 159 479
0 24 8 14 13 -16z"/>
<path d="M13557 10393 c-3 -5 -5 -268 -5 -586 l0 -577 102 0 101 0 0 583 0
582 -97 3 c-53 1 -99 -1 -101 -5z"/>
<path d="M14963 9815 l0 -585 94 0 c90 0 93 1 94 23 0 12 1 217 1 455 l0 432
68 -107 c38 -60 170 -263 294 -453 l224 -345 110 -3 109 -3 -1 583 -1 583 -92
3 -93 3 -1 -63 c0 -35 -1 -238 -1 -453 l0 -390 -19 35 c-11 19 -32 54 -47 77
-15 24 -51 80 -80 125 -29 46 -111 173 -182 283 -71 110 -155 242 -187 292
l-58 93 -116 0 -116 0 0 -585z"/>
<path d="M17153 9815 l-1 -585 92 0 92 0 -1 473 -1 473 27 -76 c15 -41 99
-253 187 -470 l159 -395 70 -3 70 -3 18 48 c10 26 28 71 40 98 12 28 30 73 40
100 10 28 22 54 26 60 5 5 9 15 9 22 0 7 9 32 19 56 36 79 211 526 211 537 0
6 5 8 10 5 6 -4 8 -11 4 -17 -5 -7 -9 -810 -5 -890 1 -16 13 -18 96 -18 l95 0
0 585 0 585 -132 0 -133 0 -19 -48 c-10 -26 -25 -60 -32 -77 -43 -99 -288
-717 -298 -750 l-12 -40 -23 70 c-13 39 -29 84 -37 100 -7 17 -40 100 -74 185
-33 85 -64 164 -69 175 -5 11 -37 92 -72 180 -34 88 -67 170 -72 183 -10 21
-15 22 -147 22 l-137 0 0 -585z"/>
<path d="M19612 9815 l0 -585 329 0 c256 0 329 3 330 13 1 14 1 125 0 145 -1
9 -54 12 -231 12 l-230 0 0 165 0 165 200 0 200 0 1 30 c0 17 1 44 1 60 0 17
-1 41 -1 55 l-1 25 -200 0 -200 0 0 165 0 165 218 0 218 0 0 85 -1 85 -317 0
-316 0 0 -585z"/>
<path d="M21397 10393 c-3 -5 -5 -268 -5 -585 l0 -578 94 0 c83 0 94 2 95 18
0 9 1 217 1 462 0 245 4 435 9 423 7 -20 31 -58 184 -293 37 -58 100 -154 140
-215 39 -60 113 -174 164 -252 l93 -143 109 0 109 0 -1 585 -1 586 -96 -3 -96
-3 1 -450 c0 -247 -2 -443 -5 -435 -3 8 -38 65 -77 125 -39 61 -93 144 -120
185 -27 41 -65 100 -85 130 -20 31 -39 62 -43 70 -4 8 -38 62 -77 120 -38 58
-91 140 -117 183 l-48 77 -112 0 c-61 0 -114 -3 -116 -7z"/>
<path d="M23469 10380 c-1 -11 -1 -31 -1 -45 0 -14 0 -43 1 -65 l1 -40 165 0
165 0 1 -32 c0 -18 1 -243 1 -500 l1 -468 98 0 99 0 0 500 0 500 168 0 168 0
0 85 -1 85 -432 0 c-426 0 -433 0 -434 -20z"/>
</g>
</svg>
